<mxfile host="app.diagrams.net" agent="Mozilla/5.0 (Windows NT 10.0; Win64; x64) AppleWebKit/537.36 (KHTML, like Gecko) Chrome/135.0.0.0 Safari/537.36" version="26.2.14">
  <diagram name="Page-1" id="eOHke8UQ7BXK-09ZB6NA">
    <mxGraphModel dx="3324" dy="1124" grid="0" gridSize="10" guides="1" tooltips="1" connect="1" arrows="1" fold="1" page="1" pageScale="1" pageWidth="850" pageHeight="1100" background="light-dark(#EDF2FB,#A9C4EB)" math="0" shadow="1">
      <root>
        <mxCell id="0" />
        <mxCell id="1" parent="0" />
        <mxCell id="k064CXghefPSiyqpKXKP-9" value="&lt;h1&gt;&lt;span style=&quot;font-family: -apple-system, BlinkMacSystemFont, &amp;quot;Segoe UI&amp;quot;, &amp;quot;Noto Sans&amp;quot;, Helvetica, Arial, sans-serif, &amp;quot;Apple Color Emoji&amp;quot;, &amp;quot;Segoe UI Emoji&amp;quot;; text-align: start;&quot;&gt;&lt;font style=&quot;color: light-dark(rgb(240, 246, 252), rgb(255, 255, 255)); font-size: 46px;&quot;&gt;Architecture Multiprocessor&lt;/font&gt;&lt;/span&gt;&lt;span style=&quot;background-color: transparent; font-size: 46px;&quot;&gt;&lt;font face=&quot;-apple-system, BlinkMacSystemFont, Segoe UI, Noto Sans, Helvetica, Arial, sans-serif, Apple Color Emoji, Segoe UI Emoji&quot;&gt;&amp;nbsp;Symmetric&lt;/font&gt;&lt;/span&gt;&lt;/h1&gt;" style="text;strokeColor=none;align=center;fillColor=none;html=1;verticalAlign=middle;whiteSpace=wrap;rounded=0;" vertex="1" parent="1">
          <mxGeometry x="9" y="16" width="841" height="127" as="geometry" />
        </mxCell>
        <mxCell id="k064CXghefPSiyqpKXKP-10" value="&lt;h1&gt;&lt;span style=&quot;font-family: -apple-system, BlinkMacSystemFont, &amp;quot;Segoe UI&amp;quot;, &amp;quot;Noto Sans&amp;quot;, Helvetica, Arial, sans-serif, &amp;quot;Apple Color Emoji&amp;quot;, &amp;quot;Segoe UI Emoji&amp;quot;; text-align: start;&quot;&gt;&lt;font style=&quot;color: light-dark(rgb(240, 246, 252), rgb(255, 255, 255)); font-size: 46px;&quot;&gt;Architecture Multiprocessor&lt;/font&gt;&lt;/span&gt;&lt;/h1&gt;" style="text;strokeColor=none;align=center;fillColor=none;html=1;verticalAlign=middle;whiteSpace=wrap;rounded=0;" vertex="1" parent="1">
          <mxGeometry x="-845" y="6.5" width="841" height="146" as="geometry" />
        </mxCell>
        <mxCell id="k064CXghefPSiyqpKXKP-13" value="" style="shape=flexArrow;endArrow=classic;startArrow=block;html=1;rounded=0;startFill=0;strokeColor=none;targetPerimeterSpacing=20;sourcePerimeterSpacing=20;endSize=20;startSize=20;strokeWidth=15;width=46.15384615384615;fillColor=light-dark(#FFFFFF,#000033);" edge="1" parent="1">
          <mxGeometry width="100" height="100" relative="1" as="geometry">
            <mxPoint x="15" y="423" as="sourcePoint" />
            <mxPoint x="826" y="423" as="targetPoint" />
            <Array as="points">
              <mxPoint x="232.5" y="426" />
            </Array>
          </mxGeometry>
        </mxCell>
        <mxCell id="k064CXghefPSiyqpKXKP-33" value="&lt;span style=&quot;background-color: light-dark(rgb(255, 255, 255), rgb(13, 17, 23));&quot;&gt;&lt;font style=&quot;font-size: 32px;&quot; face=&quot;Times New Roman&quot;&gt;SYSTEM BUS&lt;/font&gt;&lt;/span&gt;" style="edgeLabel;html=1;align=center;verticalAlign=middle;resizable=0;points=[];" vertex="1" connectable="0" parent="k064CXghefPSiyqpKXKP-13">
          <mxGeometry relative="1" as="geometry">
            <mxPoint x="-4" y="-3" as="offset" />
          </mxGeometry>
        </mxCell>
        <mxCell id="k064CXghefPSiyqpKXKP-104" value="" style="edgeStyle=orthogonalEdgeStyle;rounded=0;orthogonalLoop=1;jettySize=auto;html=1;endArrow=none;startFill=0;strokeWidth=5;" edge="1" parent="1" source="k064CXghefPSiyqpKXKP-35">
          <mxGeometry relative="1" as="geometry">
            <mxPoint x="-501" y="581" as="targetPoint" />
            <Array as="points">
              <mxPoint x="-735" y="581" />
            </Array>
          </mxGeometry>
        </mxCell>
        <mxCell id="k064CXghefPSiyqpKXKP-35" value="" style="shape=image;verticalLabelPosition=bottom;labelBackgroundColor=default;verticalAlign=top;aspect=fixed;imageAspect=0;image=https://img.freepik.com/premium-vector/cache-memory-vector-filled-outline-icon-design-illustration_357500-1235.jpg;clipPath=inset(18% 27% 35.67% 26.67% round 2%);" vertex="1" parent="1">
          <mxGeometry x="-792" y="627" width="120" height="120" as="geometry" />
        </mxCell>
        <mxCell id="k064CXghefPSiyqpKXKP-36" value="" style="shape=image;verticalLabelPosition=bottom;labelBackgroundColor=default;verticalAlign=top;aspect=fixed;imageAspect=0;image=https://cdn-icons-png.flaticon.com/512/3186/3186367.png;" vertex="1" parent="1">
          <mxGeometry x="-807" y="866" width="163" height="163" as="geometry" />
        </mxCell>
        <mxCell id="k064CXghefPSiyqpKXKP-60" value="" style="edgeStyle=orthogonalEdgeStyle;rounded=0;orthogonalLoop=1;jettySize=auto;html=1;strokeWidth=5;" edge="1" parent="1">
          <mxGeometry relative="1" as="geometry">
            <mxPoint x="-367" y="202.3" as="sourcePoint" />
            <mxPoint x="-228" y="202" as="targetPoint" />
            <Array as="points">
              <mxPoint x="-243" y="202" />
            </Array>
          </mxGeometry>
        </mxCell>
        <mxCell id="k064CXghefPSiyqpKXKP-63" value="" style="edgeStyle=orthogonalEdgeStyle;rounded=0;orthogonalLoop=1;jettySize=auto;html=1;strokeWidth=5;" edge="1" parent="1">
          <mxGeometry relative="1" as="geometry">
            <mxPoint x="-484" y="202.02564102564105" as="sourcePoint" />
            <mxPoint x="-624" y="202" as="targetPoint" />
          </mxGeometry>
        </mxCell>
        <mxCell id="k064CXghefPSiyqpKXKP-47" value="" style="shape=image;verticalLabelPosition=bottom;labelBackgroundColor=default;verticalAlign=top;aspect=fixed;imageAspect=0;image=https://cdn-icons-png.flaticon.com/512/4370/4370773.png;" vertex="1" parent="1">
          <mxGeometry x="-489" y="143" width="120" height="120" as="geometry" />
        </mxCell>
        <mxCell id="k064CXghefPSiyqpKXKP-53" value="" style="shape=image;verticalLabelPosition=bottom;labelBackgroundColor=default;verticalAlign=top;aspect=fixed;imageAspect=0;image=https://cdn-icons-png.flaticon.com/512/3786/3786576.png;" vertex="1" parent="1">
          <mxGeometry x="-785.5" y="147.11" width="120" height="120" as="geometry" />
        </mxCell>
        <mxCell id="k064CXghefPSiyqpKXKP-58" value="" style="shape=image;verticalLabelPosition=bottom;labelBackgroundColor=default;verticalAlign=top;aspect=fixed;imageAspect=0;image=https://cdn-icons-png.freepik.com/512/14966/14966185.png;" vertex="1" parent="1">
          <mxGeometry x="-193.25" y="152.5" width="103" height="103" as="geometry" />
        </mxCell>
        <mxCell id="k064CXghefPSiyqpKXKP-64" value="&lt;h1 style=&quot;text-align: start;&quot;&gt;&lt;font face=&quot;-apple-system, BlinkMacSystemFont, Segoe UI, Noto Sans, Helvetica, Arial, sans-serif, Apple Color Emoji, Segoe UI Emoji&quot;&gt;System Controller&lt;/font&gt;&lt;/h1&gt;" style="text;strokeColor=none;align=center;fillColor=none;html=1;verticalAlign=middle;whiteSpace=wrap;rounded=0;" vertex="1" parent="1">
          <mxGeometry x="-601" y="255.5" width="352" height="43" as="geometry" />
        </mxCell>
        <mxCell id="k064CXghefPSiyqpKXKP-65" value="&lt;h1 style=&quot;text-align: start;&quot;&gt;&lt;font face=&quot;-apple-system, BlinkMacSystemFont, Segoe UI, Noto Sans, Helvetica, Arial, sans-serif, Apple Color Emoji, Segoe UI Emoji&quot;&gt;Main Memory&lt;/font&gt;&lt;/h1&gt;" style="text;strokeColor=none;align=center;fillColor=none;html=1;verticalAlign=middle;whiteSpace=wrap;rounded=0;" vertex="1" parent="1">
          <mxGeometry x="-842.5" y="247" width="234" height="43" as="geometry" />
        </mxCell>
        <mxCell id="k064CXghefPSiyqpKXKP-66" value="&lt;h1 style=&quot;text-align: start;&quot;&gt;&lt;font face=&quot;-apple-system, BlinkMacSystemFont, Segoe UI, Noto Sans, Helvetica, Arial, sans-serif, Apple Color Emoji, Segoe UI Emoji&quot;&gt;I/O Controller&lt;/font&gt;&lt;/h1&gt;" style="text;strokeColor=none;align=center;fillColor=none;html=1;verticalAlign=middle;whiteSpace=wrap;rounded=0;" vertex="1" parent="1">
          <mxGeometry x="655" y="689" width="177" height="43" as="geometry" />
        </mxCell>
        <mxCell id="k064CXghefPSiyqpKXKP-77" value="" style="edgeStyle=orthogonalEdgeStyle;rounded=0;orthogonalLoop=1;jettySize=auto;html=1;strokeWidth=5;startArrow=classic;startFill=0;endArrow=none;" edge="1" parent="1" source="k064CXghefPSiyqpKXKP-69" target="k064CXghefPSiyqpKXKP-113">
          <mxGeometry relative="1" as="geometry">
            <mxPoint x="-485" y="398" as="sourcePoint" />
            <mxPoint x="-667" y="397.66" as="targetPoint" />
            <Array as="points" />
          </mxGeometry>
        </mxCell>
        <mxCell id="k064CXghefPSiyqpKXKP-119" value="" style="edgeStyle=orthogonalEdgeStyle;rounded=0;orthogonalLoop=1;jettySize=auto;html=1;strokeWidth=5;" edge="1" parent="1">
          <mxGeometry relative="1" as="geometry">
            <mxPoint x="-429.2" y="344" as="sourcePoint" />
            <mxPoint x="-429.2" y="298.5" as="targetPoint" />
            <Array as="points">
              <mxPoint x="-429.2" y="316" />
              <mxPoint x="-429.2" y="316" />
            </Array>
          </mxGeometry>
        </mxCell>
        <mxCell id="k064CXghefPSiyqpKXKP-69" value="" style="shape=image;verticalLabelPosition=bottom;labelBackgroundColor=default;verticalAlign=top;aspect=fixed;imageAspect=0;image=https://cdn-icons-png.flaticon.com/512/4828/4828905.png;" vertex="1" parent="1">
          <mxGeometry x="-477" y="329" width="108" height="108" as="geometry" />
        </mxCell>
        <mxCell id="k064CXghefPSiyqpKXKP-73" value="" style="edgeStyle=orthogonalEdgeStyle;rounded=0;orthogonalLoop=1;jettySize=auto;html=1;strokeWidth=5;endArrow=none;startFill=0;" edge="1" parent="1">
          <mxGeometry relative="1" as="geometry">
            <mxPoint x="-735" y="419" as="sourcePoint" />
            <mxPoint x="-809" y="936.9999999999998" as="targetPoint" />
            <Array as="points">
              <mxPoint x="-735" y="382" />
              <mxPoint x="-828" y="382" />
              <mxPoint x="-828" y="937" />
            </Array>
          </mxGeometry>
        </mxCell>
        <mxCell id="k064CXghefPSiyqpKXKP-83" value="" style="shape=image;verticalLabelPosition=bottom;labelBackgroundColor=default;verticalAlign=top;aspect=fixed;imageAspect=0;image=https://cdn-icons-png.flaticon.com/512/3186/3186367.png;" vertex="1" parent="1">
          <mxGeometry x="-610.5" y="866" width="163" height="163" as="geometry" />
        </mxCell>
        <mxCell id="k064CXghefPSiyqpKXKP-84" value="" style="shape=image;verticalLabelPosition=bottom;labelBackgroundColor=default;verticalAlign=top;aspect=fixed;imageAspect=0;image=https://cdn-icons-png.flaticon.com/512/3186/3186367.png;" vertex="1" parent="1">
          <mxGeometry x="-402.25" y="866" width="163" height="163" as="geometry" />
        </mxCell>
        <mxCell id="k064CXghefPSiyqpKXKP-122" value="" style="edgeStyle=orthogonalEdgeStyle;rounded=0;orthogonalLoop=1;jettySize=auto;html=1;strokeWidth=5;" edge="1" parent="1" source="k064CXghefPSiyqpKXKP-85" target="k064CXghefPSiyqpKXKP-110">
          <mxGeometry relative="1" as="geometry">
            <Array as="points">
              <mxPoint x="-126" y="810" />
              <mxPoint x="-126" y="810" />
            </Array>
          </mxGeometry>
        </mxCell>
        <mxCell id="k064CXghefPSiyqpKXKP-85" value="" style="shape=image;verticalLabelPosition=bottom;labelBackgroundColor=default;verticalAlign=top;aspect=fixed;imageAspect=0;image=https://cdn-icons-png.flaticon.com/512/3186/3186367.png;" vertex="1" parent="1">
          <mxGeometry x="-197.5" y="866" width="163" height="163" as="geometry" />
        </mxCell>
        <mxCell id="k064CXghefPSiyqpKXKP-98" value="" style="edgeStyle=orthogonalEdgeStyle;rounded=0;orthogonalLoop=1;jettySize=auto;html=1;strokeWidth=5;" edge="1" parent="1" source="k064CXghefPSiyqpKXKP-92" target="k064CXghefPSiyqpKXKP-95">
          <mxGeometry relative="1" as="geometry">
            <Array as="points">
              <mxPoint x="-533" y="581" />
              <mxPoint x="-428" y="581" />
            </Array>
          </mxGeometry>
        </mxCell>
        <mxCell id="k064CXghefPSiyqpKXKP-92" value="" style="shape=image;verticalLabelPosition=bottom;labelBackgroundColor=default;verticalAlign=top;aspect=fixed;imageAspect=0;image=https://img.freepik.com/premium-vector/cache-memory-vector-filled-outline-icon-design-illustration_357500-1235.jpg;clipPath=inset(18% 27% 35.67% 26.67% round 2%);" vertex="1" parent="1">
          <mxGeometry x="-593.25" y="627" width="120" height="120" as="geometry" />
        </mxCell>
        <mxCell id="k064CXghefPSiyqpKXKP-102" value="" style="edgeStyle=orthogonalEdgeStyle;rounded=0;orthogonalLoop=1;jettySize=auto;html=1;endArrow=none;startFill=0;strokeWidth=5;" edge="1" parent="1">
          <mxGeometry relative="1" as="geometry">
            <mxPoint x="-132" y="632.98" as="sourcePoint" />
            <mxPoint x="-336" y="581.98" as="targetPoint" />
            <Array as="points">
              <mxPoint x="-132" y="580.98" />
              <mxPoint x="-336" y="580.98" />
            </Array>
          </mxGeometry>
        </mxCell>
        <mxCell id="k064CXghefPSiyqpKXKP-94" value="" style="shape=image;verticalLabelPosition=bottom;labelBackgroundColor=default;verticalAlign=top;aspect=fixed;imageAspect=0;image=https://img.freepik.com/premium-vector/cache-memory-vector-filled-outline-icon-design-illustration_357500-1235.jpg;clipPath=inset(18% 27% 35.67% 26.67% round 2%);" vertex="1" parent="1">
          <mxGeometry x="-193.25" y="627" width="120" height="120" as="geometry" />
        </mxCell>
        <mxCell id="k064CXghefPSiyqpKXKP-97" value="" style="edgeStyle=orthogonalEdgeStyle;rounded=0;orthogonalLoop=1;jettySize=auto;html=1;strokeWidth=5;endArrow=none;startFill=0;" edge="1" parent="1">
          <mxGeometry relative="1" as="geometry">
            <mxPoint x="-427" y="580" as="sourcePoint" />
            <mxPoint x="-335" y="672" as="targetPoint" />
            <Array as="points">
              <mxPoint x="-335" y="581" />
            </Array>
          </mxGeometry>
        </mxCell>
        <mxCell id="k064CXghefPSiyqpKXKP-95" value="&lt;h1 style=&quot;text-align: start;&quot;&gt;&lt;font style=&quot;font-size: 32px; color: light-dark(rgb(255, 255, 255), rgb(0, 0, 153));&quot; face=&quot;-apple-system, BlinkMacSystemFont, Segoe UI, Noto Sans, Helvetica, Arial, sans-serif, Apple Color Emoji, Segoe UI Emoji&quot;&gt;System Bus / Interconnect&lt;/font&gt;&lt;/h1&gt;" style="text;strokeColor=none;align=center;fillColor=none;html=1;verticalAlign=middle;whiteSpace=wrap;rounded=0;" vertex="1" parent="1">
          <mxGeometry x="-630.5" y="486" width="403" height="54" as="geometry" />
        </mxCell>
        <mxCell id="k064CXghefPSiyqpKXKP-106" value="" style="shape=image;verticalLabelPosition=bottom;labelBackgroundColor=default;verticalAlign=top;aspect=fixed;imageAspect=0;image=https://img.freepik.com/premium-vector/cache-memory-vector-filled-outline-icon-design-illustration_357500-1235.jpg;clipPath=inset(18% 27% 35.67% 26.67% round 2%);" vertex="1" parent="1">
          <mxGeometry x="-394" y="627" width="120" height="120" as="geometry" />
        </mxCell>
        <mxCell id="k064CXghefPSiyqpKXKP-107" value="&lt;h1 style=&quot;text-align: start;&quot;&gt;&lt;font face=&quot;-apple-system, BlinkMacSystemFont, Segoe UI, Noto Sans, Helvetica, Arial, sans-serif, Apple Color Emoji, Segoe UI Emoji&quot;&gt;L1 Cache 1&lt;/font&gt;&lt;/h1&gt;" style="text;strokeColor=none;align=center;fillColor=none;html=1;verticalAlign=middle;whiteSpace=wrap;rounded=0;" vertex="1" parent="1">
          <mxGeometry x="-794" y="736" width="128.5" height="43" as="geometry" />
        </mxCell>
        <mxCell id="k064CXghefPSiyqpKXKP-108" value="&lt;h1 style=&quot;text-align: start;&quot;&gt;&lt;font face=&quot;-apple-system, BlinkMacSystemFont, Segoe UI, Noto Sans, Helvetica, Arial, sans-serif, Apple Color Emoji, Segoe UI Emoji&quot;&gt;L1 Cache 2&lt;/font&gt;&lt;/h1&gt;" style="text;strokeColor=none;align=center;fillColor=none;html=1;verticalAlign=middle;whiteSpace=wrap;rounded=0;" vertex="1" parent="1">
          <mxGeometry x="-597.5" y="736" width="128.5" height="43" as="geometry" />
        </mxCell>
        <mxCell id="k064CXghefPSiyqpKXKP-109" value="&lt;h1 style=&quot;text-align: start;&quot;&gt;&lt;font face=&quot;-apple-system, BlinkMacSystemFont, Segoe UI, Noto Sans, Helvetica, Arial, sans-serif, Apple Color Emoji, Segoe UI Emoji&quot;&gt;L1 Cache 3&lt;/font&gt;&lt;/h1&gt;" style="text;strokeColor=none;align=center;fillColor=none;html=1;verticalAlign=middle;whiteSpace=wrap;rounded=0;" vertex="1" parent="1">
          <mxGeometry x="-398.25" y="736" width="128.5" height="43" as="geometry" />
        </mxCell>
        <mxCell id="k064CXghefPSiyqpKXKP-110" value="&lt;h1 style=&quot;text-align: start;&quot;&gt;&lt;font face=&quot;-apple-system, BlinkMacSystemFont, Segoe UI, Noto Sans, Helvetica, Arial, sans-serif, Apple Color Emoji, Segoe UI Emoji&quot;&gt;L1 Cache 4&lt;/font&gt;&lt;/h1&gt;" style="text;strokeColor=none;align=center;fillColor=none;html=1;verticalAlign=middle;whiteSpace=wrap;rounded=0;" vertex="1" parent="1">
          <mxGeometry x="-197.5" y="736" width="128.5" height="43" as="geometry" />
        </mxCell>
        <mxCell id="k064CXghefPSiyqpKXKP-111" value="&lt;h1 style=&quot;text-align: start;&quot;&gt;&lt;font face=&quot;-apple-system, BlinkMacSystemFont, Segoe UI, Noto Sans, Helvetica, Arial, sans-serif, Apple Color Emoji, Segoe UI Emoji&quot;&gt;CPU&lt;/font&gt;&lt;/h1&gt;" style="text;strokeColor=none;align=center;fillColor=none;html=1;verticalAlign=middle;whiteSpace=wrap;rounded=0;" vertex="1" parent="1">
          <mxGeometry x="-796.25" y="1019" width="128.5" height="43" as="geometry" />
        </mxCell>
        <mxCell id="k064CXghefPSiyqpKXKP-113" value="" style="shape=image;verticalLabelPosition=bottom;labelBackgroundColor=default;verticalAlign=top;aspect=fixed;imageAspect=0;image=https://cdn-icons-png.flaticon.com/512/4828/4828905.png;" vertex="1" parent="1">
          <mxGeometry x="-754.88" y="329" width="108" height="108" as="geometry" />
        </mxCell>
        <mxCell id="k064CXghefPSiyqpKXKP-127" value="&lt;h1 style=&quot;text-align: start;&quot;&gt;&lt;font face=&quot;-apple-system, BlinkMacSystemFont, Segoe UI, Noto Sans, Helvetica, Arial, sans-serif, Apple Color Emoji, Segoe UI Emoji&quot;&gt;CPU&lt;/font&gt;&lt;/h1&gt;" style="text;strokeColor=none;align=center;fillColor=none;html=1;verticalAlign=middle;whiteSpace=wrap;rounded=0;" vertex="1" parent="1">
          <mxGeometry x="-593.25" y="1017" width="128.5" height="43" as="geometry" />
        </mxCell>
        <mxCell id="k064CXghefPSiyqpKXKP-128" value="&lt;h1 style=&quot;text-align: start;&quot;&gt;&lt;font face=&quot;-apple-system, BlinkMacSystemFont, Segoe UI, Noto Sans, Helvetica, Arial, sans-serif, Apple Color Emoji, Segoe UI Emoji&quot;&gt;CPU&lt;/font&gt;&lt;/h1&gt;" style="text;strokeColor=none;align=center;fillColor=none;html=1;verticalAlign=middle;whiteSpace=wrap;rounded=0;" vertex="1" parent="1">
          <mxGeometry x="-385" y="1014" width="128.5" height="43" as="geometry" />
        </mxCell>
        <mxCell id="k064CXghefPSiyqpKXKP-129" value="&lt;h1 style=&quot;text-align: start;&quot;&gt;&lt;font face=&quot;-apple-system, BlinkMacSystemFont, Segoe UI, Noto Sans, Helvetica, Arial, sans-serif, Apple Color Emoji, Segoe UI Emoji&quot;&gt;CPU&lt;/font&gt;&lt;/h1&gt;" style="text;strokeColor=none;align=center;fillColor=none;html=1;verticalAlign=middle;whiteSpace=wrap;rounded=0;" vertex="1" parent="1">
          <mxGeometry x="-185" y="1009" width="128.5" height="43" as="geometry" />
        </mxCell>
        <mxCell id="k064CXghefPSiyqpKXKP-130" value="" style="edgeStyle=orthogonalEdgeStyle;rounded=0;orthogonalLoop=1;jettySize=auto;html=1;strokeWidth=5;" edge="1" parent="1">
          <mxGeometry relative="1" as="geometry">
            <mxPoint x="-331" y="866" as="sourcePoint" />
            <mxPoint x="-331" y="779" as="targetPoint" />
            <Array as="points">
              <mxPoint x="-331" y="810" />
              <mxPoint x="-331" y="810" />
            </Array>
          </mxGeometry>
        </mxCell>
        <mxCell id="k064CXghefPSiyqpKXKP-131" value="" style="edgeStyle=orthogonalEdgeStyle;rounded=0;orthogonalLoop=1;jettySize=auto;html=1;strokeWidth=5;" edge="1" parent="1">
          <mxGeometry relative="1" as="geometry">
            <mxPoint x="-539" y="866" as="sourcePoint" />
            <mxPoint x="-539" y="779" as="targetPoint" />
            <Array as="points">
              <mxPoint x="-539" y="810" />
              <mxPoint x="-539" y="810" />
            </Array>
          </mxGeometry>
        </mxCell>
        <mxCell id="k064CXghefPSiyqpKXKP-132" value="" style="edgeStyle=orthogonalEdgeStyle;rounded=0;orthogonalLoop=1;jettySize=auto;html=1;strokeWidth=5;" edge="1" parent="1">
          <mxGeometry relative="1" as="geometry">
            <mxPoint x="-736" y="866" as="sourcePoint" />
            <mxPoint x="-736" y="779" as="targetPoint" />
            <Array as="points">
              <mxPoint x="-736" y="810" />
              <mxPoint x="-736" y="810" />
            </Array>
          </mxGeometry>
        </mxCell>
        <mxCell id="k064CXghefPSiyqpKXKP-133" value="&lt;h1 style=&quot;text-align: start;&quot;&gt;&lt;font face=&quot;-apple-system, BlinkMacSystemFont, Segoe UI, Noto Sans, Helvetica, Arial, sans-serif, Apple Color Emoji, Segoe UI Emoji&quot;&gt;L2 Cache 1&lt;/font&gt;&lt;/h1&gt;" style="text;strokeColor=none;align=center;fillColor=none;html=1;verticalAlign=middle;whiteSpace=wrap;rounded=0;" vertex="1" parent="1">
          <mxGeometry x="-780" y="423" width="158.25" height="43" as="geometry" />
        </mxCell>
        <mxCell id="k064CXghefPSiyqpKXKP-135" value="" style="edgeStyle=orthogonalEdgeStyle;rounded=0;orthogonalLoop=1;jettySize=auto;html=1;strokeWidth=5;endArrow=none;startFill=0;" edge="1" parent="1" source="k064CXghefPSiyqpKXKP-134">
          <mxGeometry relative="1" as="geometry">
            <mxPoint x="-429.075" y="477.991" as="sourcePoint" />
            <mxPoint x="-429.07236641221374" y="494.99" as="targetPoint" />
          </mxGeometry>
        </mxCell>
        <mxCell id="k064CXghefPSiyqpKXKP-134" value="&lt;h1 style=&quot;text-align: start;&quot;&gt;&lt;font face=&quot;-apple-system, BlinkMacSystemFont, Segoe UI, Noto Sans, Helvetica, Arial, sans-serif, Apple Color Emoji, Segoe UI Emoji&quot;&gt;L2 Cache 2&lt;/font&gt;&lt;/h1&gt;" style="text;strokeColor=none;align=center;fillColor=none;html=1;verticalAlign=middle;whiteSpace=wrap;rounded=0;" vertex="1" parent="1">
          <mxGeometry x="-508.13" y="423" width="158.25" height="43" as="geometry" />
        </mxCell>
        <mxCell id="k064CXghefPSiyqpKXKP-158" value="" style="edgeStyle=orthogonalEdgeStyle;rounded=0;orthogonalLoop=1;jettySize=auto;html=1;endArrow=none;startFill=0;strokeWidth=5;" edge="1" parent="1" source="k064CXghefPSiyqpKXKP-137">
          <mxGeometry relative="1" as="geometry">
            <mxPoint x="538" y="516" as="targetPoint" />
            <Array as="points">
              <mxPoint x="742" y="513" />
              <mxPoint x="537" y="513" />
              <mxPoint x="537" y="516" />
            </Array>
          </mxGeometry>
        </mxCell>
        <mxCell id="k064CXghefPSiyqpKXKP-137" value="" style="shape=image;verticalLabelPosition=bottom;labelBackgroundColor=default;verticalAlign=top;aspect=fixed;imageAspect=0;image=https://cdn-icons-png.freepik.com/512/14966/14966185.png;" vertex="1" parent="1">
          <mxGeometry x="686" y="570" width="111" height="111" as="geometry" />
        </mxCell>
        <mxCell id="k064CXghefPSiyqpKXKP-160" value="" style="edgeStyle=orthogonalEdgeStyle;rounded=0;orthogonalLoop=1;jettySize=auto;html=1;strokeWidth=5;endArrow=none;startFill=0;" edge="1" parent="1" source="k064CXghefPSiyqpKXKP-140">
          <mxGeometry relative="1" as="geometry">
            <mxPoint x="322" y="513" as="targetPoint" />
            <Array as="points">
              <mxPoint x="117" y="514" />
              <mxPoint x="257" y="514" />
              <mxPoint x="257" y="513" />
            </Array>
          </mxGeometry>
        </mxCell>
        <mxCell id="k064CXghefPSiyqpKXKP-140" value="" style="shape=image;verticalLabelPosition=bottom;labelBackgroundColor=default;verticalAlign=top;aspect=fixed;imageAspect=0;image=https://cdn-icons-png.flaticon.com/512/4828/4828905.png;" vertex="1" parent="1">
          <mxGeometry x="62" y="562" width="119" height="119" as="geometry" />
        </mxCell>
        <mxCell id="k064CXghefPSiyqpKXKP-151" value="" style="edgeStyle=orthogonalEdgeStyle;rounded=0;orthogonalLoop=1;jettySize=auto;html=1;strokeWidth=5;" edge="1" parent="1">
          <mxGeometry relative="1" as="geometry">
            <mxPoint x="420.36" y="317" as="sourcePoint" />
            <mxPoint x="420.36" y="380" as="targetPoint" />
            <Array as="points">
              <mxPoint x="420.36" y="373" />
            </Array>
          </mxGeometry>
        </mxCell>
        <mxCell id="k064CXghefPSiyqpKXKP-141" value="" style="shape=image;verticalLabelPosition=bottom;labelBackgroundColor=default;verticalAlign=top;aspect=fixed;imageAspect=0;image=https://cdn-icons-png.flaticon.com/512/3103/3103973.png;" vertex="1" parent="1">
          <mxGeometry x="346" y="143" width="149" height="149" as="geometry" />
        </mxCell>
        <mxCell id="k064CXghefPSiyqpKXKP-142" value="" style="shape=image;verticalLabelPosition=bottom;labelBackgroundColor=default;verticalAlign=top;aspect=fixed;imageAspect=0;image=https://cdn-icons-png.flaticon.com/512/3786/3786576.png;" vertex="1" parent="1">
          <mxGeometry x="61" y="827" width="120" height="120" as="geometry" />
        </mxCell>
        <mxCell id="k064CXghefPSiyqpKXKP-154" value="" style="edgeStyle=orthogonalEdgeStyle;rounded=0;orthogonalLoop=1;jettySize=auto;html=1;strokeWidth=5;endArrow=none;startFill=0;" edge="1" parent="1">
          <mxGeometry relative="1" as="geometry">
            <mxPoint x="322.9953271028039" y="566" as="sourcePoint" />
            <mxPoint x="436" y="513" as="targetPoint" />
            <Array as="points">
              <mxPoint x="323" y="513" />
            </Array>
          </mxGeometry>
        </mxCell>
        <mxCell id="k064CXghefPSiyqpKXKP-143" value="" style="shape=image;verticalLabelPosition=bottom;labelBackgroundColor=default;verticalAlign=top;aspect=fixed;imageAspect=0;image=https://cdn-icons-png.flaticon.com/512/4828/4828905.png;" vertex="1" parent="1">
          <mxGeometry x="271" y="566" width="119" height="119" as="geometry" />
        </mxCell>
        <mxCell id="k064CXghefPSiyqpKXKP-156" value="" style="edgeStyle=orthogonalEdgeStyle;rounded=0;orthogonalLoop=1;jettySize=auto;html=1;endArrow=none;startFill=0;strokeWidth=5;" edge="1" parent="1" source="k064CXghefPSiyqpKXKP-144">
          <mxGeometry relative="1" as="geometry">
            <mxPoint x="414" y="513" as="targetPoint" />
            <Array as="points">
              <mxPoint x="537" y="513" />
            </Array>
          </mxGeometry>
        </mxCell>
        <mxCell id="k064CXghefPSiyqpKXKP-144" value="" style="shape=image;verticalLabelPosition=bottom;labelBackgroundColor=default;verticalAlign=top;aspect=fixed;imageAspect=0;image=https://cdn-icons-png.flaticon.com/512/4828/4828905.png;" vertex="1" parent="1">
          <mxGeometry x="481" y="566" width="119" height="119" as="geometry" />
        </mxCell>
        <mxCell id="k064CXghefPSiyqpKXKP-161" value="" style="edgeStyle=orthogonalEdgeStyle;rounded=0;orthogonalLoop=1;jettySize=auto;html=1;strokeWidth=5;" edge="1" parent="1">
          <mxGeometry relative="1" as="geometry">
            <mxPoint x="115.97" y="730" as="sourcePoint" />
            <mxPoint x="115.97" y="827" as="targetPoint" />
            <Array as="points">
              <mxPoint x="115.97" y="804" />
              <mxPoint x="115.97" y="804" />
            </Array>
          </mxGeometry>
        </mxCell>
        <mxCell id="k064CXghefPSiyqpKXKP-145" value="&lt;h1 style=&quot;text-align: start;&quot;&gt;&lt;font face=&quot;-apple-system, BlinkMacSystemFont, Segoe UI, Noto Sans, Helvetica, Arial, sans-serif, Apple Color Emoji, Segoe UI Emoji&quot;&gt;Cache&lt;/font&gt;&lt;/h1&gt;" style="text;strokeColor=none;align=center;fillColor=none;html=1;verticalAlign=middle;whiteSpace=wrap;rounded=0;" vertex="1" parent="1">
          <mxGeometry x="37" y="689" width="158.25" height="43" as="geometry" />
        </mxCell>
        <mxCell id="k064CXghefPSiyqpKXKP-146" value="&lt;h1 style=&quot;text-align: start;&quot;&gt;&lt;font face=&quot;-apple-system, BlinkMacSystemFont, Segoe UI, Noto Sans, Helvetica, Arial, sans-serif, Apple Color Emoji, Segoe UI Emoji&quot;&gt;Cache&lt;/font&gt;&lt;/h1&gt;" style="text;strokeColor=none;align=center;fillColor=none;html=1;verticalAlign=middle;whiteSpace=wrap;rounded=0;" vertex="1" parent="1">
          <mxGeometry x="245" y="689" width="158.25" height="43" as="geometry" />
        </mxCell>
        <mxCell id="k064CXghefPSiyqpKXKP-147" value="&lt;h1 style=&quot;text-align: start;&quot;&gt;&lt;font face=&quot;-apple-system, BlinkMacSystemFont, Segoe UI, Noto Sans, Helvetica, Arial, sans-serif, Apple Color Emoji, Segoe UI Emoji&quot;&gt;Cache&lt;/font&gt;&lt;/h1&gt;" style="text;strokeColor=none;align=center;fillColor=none;html=1;verticalAlign=middle;whiteSpace=wrap;rounded=0;" vertex="1" parent="1">
          <mxGeometry x="461.38" y="689" width="158.25" height="43" as="geometry" />
        </mxCell>
        <mxCell id="k064CXghefPSiyqpKXKP-148" value="" style="shape=image;verticalLabelPosition=bottom;labelBackgroundColor=default;verticalAlign=top;aspect=fixed;imageAspect=0;image=https://cdn-icons-png.flaticon.com/512/3786/3786576.png;" vertex="1" parent="1">
          <mxGeometry x="273" y="827" width="120" height="120" as="geometry" />
        </mxCell>
        <mxCell id="k064CXghefPSiyqpKXKP-149" value="" style="shape=image;verticalLabelPosition=bottom;labelBackgroundColor=default;verticalAlign=top;aspect=fixed;imageAspect=0;image=https://cdn-icons-png.flaticon.com/512/3786/3786576.png;" vertex="1" parent="1">
          <mxGeometry x="485" y="827" width="120" height="120" as="geometry" />
        </mxCell>
        <mxCell id="k064CXghefPSiyqpKXKP-162" value="" style="edgeStyle=orthogonalEdgeStyle;rounded=0;orthogonalLoop=1;jettySize=auto;html=1;strokeWidth=5;" edge="1" parent="1">
          <mxGeometry relative="1" as="geometry">
            <mxPoint x="323.87" y="730" as="sourcePoint" />
            <mxPoint x="323.87" y="827" as="targetPoint" />
            <Array as="points">
              <mxPoint x="323.87" y="804" />
              <mxPoint x="323.87" y="804" />
            </Array>
          </mxGeometry>
        </mxCell>
        <mxCell id="k064CXghefPSiyqpKXKP-163" value="" style="edgeStyle=orthogonalEdgeStyle;rounded=0;orthogonalLoop=1;jettySize=auto;html=1;strokeWidth=5;" edge="1" parent="1">
          <mxGeometry relative="1" as="geometry">
            <mxPoint x="540.2" y="732" as="sourcePoint" />
            <mxPoint x="540.2" y="829" as="targetPoint" />
            <Array as="points">
              <mxPoint x="540.2" y="806" />
              <mxPoint x="540.2" y="806" />
            </Array>
          </mxGeometry>
        </mxCell>
        <mxCell id="k064CXghefPSiyqpKXKP-165" value="&lt;h1 style=&quot;text-align: start;&quot;&gt;&lt;font face=&quot;-apple-system, BlinkMacSystemFont, Segoe UI, Noto Sans, Helvetica, Arial, sans-serif, Apple Color Emoji, Segoe UI Emoji&quot;&gt;Main Memory&lt;/font&gt;&lt;/h1&gt;" style="text;strokeColor=none;align=center;fillColor=none;html=1;verticalAlign=middle;whiteSpace=wrap;rounded=0;" vertex="1" parent="1">
          <mxGeometry x="244.5" y="272" width="352" height="43" as="geometry" />
        </mxCell>
        <mxCell id="k064CXghefPSiyqpKXKP-166" value="&lt;h1 style=&quot;text-align: start;&quot;&gt;&lt;font face=&quot;-apple-system, BlinkMacSystemFont, Segoe UI, Noto Sans, Helvetica, Arial, sans-serif, Apple Color Emoji, Segoe UI Emoji&quot;&gt;Memory&lt;/font&gt;&lt;/h1&gt;" style="text;strokeColor=none;align=center;fillColor=none;html=1;verticalAlign=middle;whiteSpace=wrap;rounded=0;" vertex="1" parent="1">
          <mxGeometry x="48" y="941" width="146" height="43" as="geometry" />
        </mxCell>
        <mxCell id="k064CXghefPSiyqpKXKP-167" value="&lt;h1 style=&quot;text-align: start;&quot;&gt;&lt;font face=&quot;-apple-system, BlinkMacSystemFont, Segoe UI, Noto Sans, Helvetica, Arial, sans-serif, Apple Color Emoji, Segoe UI Emoji&quot;&gt;Memory&lt;/font&gt;&lt;/h1&gt;" style="text;strokeColor=none;align=center;fillColor=none;html=1;verticalAlign=middle;whiteSpace=wrap;rounded=0;" vertex="1" parent="1">
          <mxGeometry x="260" y="941" width="146" height="43" as="geometry" />
        </mxCell>
        <mxCell id="k064CXghefPSiyqpKXKP-168" value="&lt;h1 style=&quot;text-align: start;&quot;&gt;&lt;font face=&quot;-apple-system, BlinkMacSystemFont, Segoe UI, Noto Sans, Helvetica, Arial, sans-serif, Apple Color Emoji, Segoe UI Emoji&quot;&gt;Memory&lt;/font&gt;&lt;/h1&gt;" style="text;strokeColor=none;align=center;fillColor=none;html=1;verticalAlign=middle;whiteSpace=wrap;rounded=0;" vertex="1" parent="1">
          <mxGeometry x="472" y="941" width="146" height="43" as="geometry" />
        </mxCell>
      </root>
    </mxGraphModel>
  </diagram>
</mxfile>
